<svg xmlns="http://www.w3.org/2000/svg" xmlns:xlink="http://www.w3.org/1999/xlink" viewBox="0 0 600.31 501.22"><defs><style>.cls-1{fill:none;}.cls-2,.cls-7{fill:#f2f1f1;}.cls-3{fill:#c7cfd4;}.cls-4{fill:#fff;}.cls-5,.cls-6{fill:#dee3e8;}.cls-6{stroke:#dee3e8;}.cls-6,.cls-7{stroke-miterlimit:10;stroke-width:2px;}.cls-7{stroke:#72acdb;}.cls-8{fill:#ad8c6c;}.cls-10,.cls-11,.cls-12,.cls-13,.cls-14,.cls-15,.cls-16,.cls-17,.cls-18,.cls-19,.cls-20,.cls-8,.cls-9{fill-rule:evenodd;}.cls-9{fill:#181b44;}.cls-10{fill:#303872;}.cls-11{fill:#e4e4e4;}.cls-12{fill:#94775e;}.cls-13{fill:#5d66a7;}.cls-14{fill:#ca3c32;}.cls-15{fill:#dee3e9;}.cls-16{fill:#de5443;}.cls-17{fill:#ab8c6b;}.cls-18,.cls-24{fill:#6f6f83;}.cls-19{fill:#2c3b90;}.cls-20{fill:#3e4e9a;}.cls-21{clip-path:url(#clip-path);}.cls-22{fill:#a1c2e4;}.cls-23{fill:#7e7f90;}.cls-25{fill:#606073;}.cls-26{fill:#5caf95;}.cls-27{fill:#479d7f;}.cls-28{fill:#77bb87;}.cls-29{fill:#64b477;}.cls-30{fill:#634648;}.cls-31{fill:#60a481;}.cls-32{fill:#c9e1f4;}.cls-33{fill:#eff5fb;}.cls-34{opacity:0.6;}</style><clipPath id="clip-path"><rect class="cls-1" x="161.5" y="147.12" width="156.14" height="101.73" rx="12"/></clipPath></defs><title>Humans1_1</title><g id="Layer_2" data-name="Layer 2"><g id="Layer_1-2" data-name="Layer 1"><rect class="cls-2" x="61.47" width="519.9" height="359.05" rx="11.03"/><path class="cls-3" d="M72.5,0H570.34a11,11,0,0,1,11,11v16a0,0,0,0,1,0,0H61.47a0,0,0,0,1,0,0V11a11,11,0,0,1,11-11Z"/><circle class="cls-2" cx="75.47" cy="13.54" r="3.29"/><circle class="cls-2" cx="85.76" cy="13.54" r="3.29"/><circle class="cls-2" cx="96.05" cy="13.54" r="3.29"/><rect class="cls-2" x="111.51" y="79.64" width="217.49" height="11.94" rx="5.97"/><rect class="cls-4" x="117.85" y="75.51" width="285.28" height="63.4" rx="3.37"/><rect class="cls-5" x="128.42" y="92.22" width="226.54" height="8.65" rx="1.89"/><rect class="cls-5" x="128.42" y="107.21" width="130.14" height="8.65" rx="1.89"/><rect class="cls-4" x="117.85" y="159.21" width="285.28" height="63.4" rx="3.37"/><rect class="cls-5" x="128.42" y="175.92" width="226.54" height="8.65" rx="1.89"/><rect class="cls-5" x="128.42" y="190.91" width="130.14" height="8.65" rx="1.89"/><rect class="cls-4" x="117.85" y="241.08" width="285.28" height="63.4" rx="3.37"/><rect class="cls-5" x="128.42" y="257.8" width="226.54" height="8.65" rx="1.89"/><rect class="cls-5" x="128.42" y="272.78" width="130.14" height="8.65" rx="1.89"/><line class="cls-6" x1="99.71" y1="78.88" x2="99.71" y2="244.46"/><rect class="cls-7" x="96.34" y="159.21" width="6.74" height="6.74" rx="3.37"/><rect class="cls-7" x="96.34" y="75.51" width="6.74" height="6.74" rx="3.37"/><rect class="cls-7" x="96.34" y="241.08" width="6.74" height="6.74" rx="3.37"/><rect class="cls-4" x="432.37" y="75.51" width="114.14" height="90.45" rx="3.37"/><rect class="cls-4" x="432.37" y="176.47" width="114.14" height="92.54" rx="3.37"/><rect class="cls-4" x="432.37" y="279.53" width="114.14" height="24.96" rx="3.37"/><g id="Head"><path class="cls-8" d="M509.84,264H492.19l3-21.15c-4.77,2.87-9.45,4.25-11.64,3.69-5.51-1.42-6-21.57-1.76-29.52s26.18-11.41,27.28,4.34c.38,5.46-1.91,10.33-5.3,14.31Z"/></g><path id="hair" class="cls-9" d="M481.71,213.27c-.95,2.15-.35,4.79,3.65,4.55,4.06,4.86,9.95,8.19,10.63,8.24.05,0,2.65-3.53,5.13-2,2.87,1.73,2.34,4.91.79,7.4-.81,1.29-2.06,3.25,0,4.75,3.26,2.36,11.64-2.89,13-7.38,2.58-8.31-1-19.64-10.18-21.3.55-1.57,2.75-2.2,4.26-2.5,3.61-.74,7.4,0,10.94.78,4.34.94,8.75,2.33,13.22,2.36a19.22,19.22,0,0,0,6.75-1.21,27.82,27.82,0,0,0,6-3.42c1.86-1.24,3.88-1,5.94-.39a32.55,32.55,0,0,1,6.08,2.43c4.16,2.15,8,4.81,12.45,6.37a33.09,33.09,0,0,0,10.33,1.89c6.11.14,13.45-1.2,17.4-6.35,2.73-3.55,2.73-8,1.07-12a19.21,19.21,0,0,0-7.58-8.6,24.92,24.92,0,0,0-11.76-4.46A21.82,21.82,0,0,0,566.94,186c-3.78,2.31-7.17,4.74-11.66,5.43a28.23,28.23,0,0,1-13.18-1.27c-4.47-1.47-8.76-3-13.49-3.41a27.84,27.84,0,0,0-13.19,1.81,18.26,18.26,0,0,0-8.69,7.87,22.37,22.37,0,0,0-2.35,6c-.18.74-.36,1.48-.48,2.22s0,1.59-.33,2.14-1.24.51-2,.51c-1.15,0-7.42.26-9.75.65C488.63,208.39,482.67,211.11,481.71,213.27Z"/><path id="Leg" class="cls-8" d="M483.05,325.24q-63.26,55.9-66.29,65.93-2.11,7,39.18,72.68l7.47-2.9q-26.93-62-26.6-63c.5-1.49,85.94-54.79,87.26-72.89Z"/><path id="Pant" class="cls-10" d="M443.21,399.88c1.06-1.79,80.25-32.87,81.74-74.79H481.36q-64.23,53.63-66.07,65.82c-1.83,12.19,8.25,36.13,34,65.14l12.19-4.44C452.58,419.16,442.15,401.66,443.21,399.88Z"/><path id="shoe" class="cls-11" d="M466.08,459.45a1.47,1.47,0,0,0-2.08,0h0a11.87,11.87,0,0,1-3.8,2.8,13.19,13.19,0,0,1-5.44.37l-2.19-2.4h0a.74.74,0,0,0-1,0l-15.18,14.67c-1.37.74-3.09,1.64-5.18,2.71s-2,3.08.22,6.06l39-14.19a36.63,36.63,0,0,0-1.36-5.68,15.5,15.5,0,0,0-2.85-4.21A.27.27,0,0,0,466.08,459.45Z"/><polygon class="cls-12" points="484.33 325.04 580.89 493.66 589.72 493.66 552.31 416.42 514.25 325.04 484.33 325.04"/><path class="cls-11" d="M590.21,490a1.48,1.48,0,0,0-2-.73h0a11.82,11.82,0,0,1-4.53,1.33,13.15,13.15,0,0,1-5.24-1.51l-1.24-3v0a.74.74,0,0,0-1-.38L557,494.29q-2.31.34-5.79.77c-2.32.28-3,2.21-1.87,5.77h41.49a37,37,0,0,0,.66-5.8,15.8,15.8,0,0,0-1.23-4.93Z"/><path class="cls-13" d="M524.81,325H481.15c7,42.56,70.42,134,85.58,156.25l19.61-3.68C571.89,455,548,355.8,524.81,325Z"/><path id="Skin" class="cls-8" d="M439.54,315.81l-20-15.31q-15-2.75-13.87-4.72c1.09-2,3.83-.63,4.78-1.84s-1.39-5-3.76-8.43-.15-3.33,1.15-2.92A63.22,63.22,0,0,1,421.4,293.2l26.65,11.7Zm134.54,36.61c1.45,1.89,10.34,6.78,16.36,9.39,2.41,1.05,1.89,3.09,1.18,3.74-5.76,5.31-11,1.37-17.18-.16-6.77-1.68-4.66,6.37-10,5.12.85-3.68,3.16-10.66.69-14.48q-1.65-2.53-24.39-44.91l15.07-3Q571.13,348.54,574.08,352.42Z"/><path id="Coat-Back" class="cls-14" d="M477.73,325.25c-11.54,7-40-5.24-53.38-19.69l4.51-10.07c14.71,5.28,27.08,9.19,35.81,5.15,9.23-4.27,14.88-36.56,28.73-50l6.36,1.09C500.43,274.29,496.17,314.11,477.73,325.25Z"/><path id="Shirt" class="cls-15" d="M506.77,247.82l-16.23,2.54c0,30.78-16.75,54.09-21,75.72-.37,1.87-.86,5.58,1.71,5.58h56.28C524.84,296,520.2,269.41,506.77,247.82Z"/><path id="Coat-Front" class="cls-16" d="M540,347.11H489.34q-9.81-24.78,12.05-99.29h6.43q54.62,33.65,66,104.33L562,354.46q-11.71-13.65-28.93-44.69A184.86,184.86,0,0,1,540,347.11Z"/><g id="Head-2" data-name="Head"><path class="cls-17" d="M99.08,224c-3.91-3.79-6.78-8.63-6.92-14.34-.4-16.46,22.7-15,27.9-7.19s6.67,28.81,1.09,30.83c-2.23.8-7.22-.18-12.45-2.69l5.18,21.67L95.55,254Z"/></g><path id="hair-2" data-name="hair" class="cls-9" d="M112,194.12a24.21,24.21,0,0,0-7.75-.12,13.2,13.2,0,0,0,.3-6.75,20.45,20.45,0,0,0-2.73-5.83,8.44,8.44,0,0,0-1.84-2.34,5.45,5.45,0,0,0-2.72-1.15,7,7,0,0,0-3,.28c-.43.14-.8.37-1.21.52s-.66-.1-1-.34a5.39,5.39,0,0,0-2.94-.83,7.38,7.38,0,0,0-3.2.69,6.34,6.34,0,0,0-2.53,2,4.62,4.62,0,0,0-.69,1.32c-.06.19-.06.3-.24.39s-.37.1-.55.18a7,7,0,0,0-3.67,4,11.66,11.66,0,0,0-.18,4.8c.25,2,2.52,7,4.37,8.68a11.29,11.29,0,0,0,6.1,2.73A16.67,16.67,0,0,0,86,208.28a27.78,27.78,0,0,0-.74,7,22.52,22.52,0,0,0,1,6.73A7.36,7.36,0,0,0,90,226.46a15.56,15.56,0,0,0,2.63.94,16.44,16.44,0,0,0,2.68.59c1.72.19,3.66-.06,4.83-1.52a9.33,9.33,0,0,0,1.17-1.81c.1-.23.16-.37,0-.57a4.63,4.63,0,0,0-.75-.57,6.56,6.56,0,0,1-2.74-4.14c-.38-1.76-.12-4.12,1.55-5.07,2.05-1.16,4.52-.28,6.53.57a10.56,10.56,0,0,1,4.45-7.24c2.75-1.72,6-2.21,8.9-3.73a5.52,5.52,0,0,0,2-1.56,2.75,2.75,0,0,0,.51-1.06,1.61,1.61,0,0,0-.54-1.22C119.74,198.21,114.55,194.65,112,194.12Z"/><polygon id="Leg-2" data-name="Leg" class="cls-17" points="99.86 317.85 156.88 413.16 199.62 493.74 208.82 493.74 137.21 317.85 99.86 317.85"/><path id="shoe-2" data-name="shoe" class="cls-18" d="M194,490a16.47,16.47,0,0,0-1.29,5.14,38.48,38.48,0,0,0,.69,6.06h43.28c1.12-3.72.47-5.72-1.95-6s-4.44-.57-6-.8l-20.11-9a.78.78,0,0,0-1,.39v0l-1.3,3.13a13.71,13.71,0,0,1-5.46,1.57,12.43,12.43,0,0,1-4.73-1.38h0a1.53,1.53,0,0,0-2,.76Z"/><path id="Pant-2" data-name="Pant" class="cls-14" d="M187.75,480.84l17.75-5.37q-11.67-34.89-28.6-76.77t-36.37-80.85H90.39a787.76,787.76,0,0,0,45.82,89.56A606.72,606.72,0,0,0,187.75,480.84Z"/><path class="cls-17" d="M96.12,317.85c-5.38,33.49-15.76,76.28-16.74,77.61q-1,1.32-70.52,23.62l2,8.12q82.92-12,87.39-18.56c4.46-6.6,26.75-58.75,35.38-90.79Z"/><path class="cls-16" d="M25.16,412.07l3.5,13.07q62,5.44,76-7.86t31.87-99.43H88.72Q77.4,388.38,76.05,391.34T25.16,412.07Z"/><path class="cls-18" d="M11.13,415.7a16.57,16.57,0,0,0-5.29-.37A38.9,38.9,0,0,0,0,417.06l7.51,42.62c3.86.46,5.72-.53,5.6-3s-.22-4.46-.26-6.08l5.34-21.37a.77.77,0,0,0-.56-.93h0l-3.32-.73a13.74,13.74,0,0,1-2.49-5.11,12.3,12.3,0,0,1,.54-4.89h0a1.54,1.54,0,0,0-1.1-1.87Z"/><path id="Skin-2" data-name="Skin" class="cls-17" d="M132.61,268.37l23.1-19.7A65.48,65.48,0,0,1,166,234c1.17-.81,3.35-1.6,2,2.57s-2.54,8.61-1.23,9.54,3.65-1.23,5.33.41q1.68,1.65-12.44,8.89L144.39,276.7Zm47.44,8.06,10.14-8.67c.33-6.45,1.62-9.92,3.84-10.43,1.55-1.15.17,7.2,3.29,5.85s9.83-8.91,11.44-8c2.4,1.35,1.73,7.17.16,10.33-2.92,5.89-5.85,8.31-13.52,12.27a45.66,45.66,0,0,0-12.31,10Z"/><path id="Sleeve" class="cls-19" d="M119.25,267.83a65.42,65.42,0,0,0,32.17-17.41l7.47,10.32c-7.12,10.76-18.2,20.69-29.28,22.67A10.17,10.17,0,0,1,119.25,267.83Z"/><path id="Clothes" class="cls-20" d="M136.94,287q15.3.6,47-18.7,12.15,15.81,13.06,23.42C179.54,306,163.71,314,150,317.2c2.15,8.11,2.77,16.13.9,24-3.84,16.09-47,10.91-60.06,16.41-14.24-25.84-.14-40.48-3.8-58.15-4-19.35,5.33-52.36,7.61-52.83l20.84-4.34C119.67,256.79,128.84,271.87,136.94,287Z"/><g class="cls-21"><circle class="cls-22" cx="239.64" cy="199.15" r="92.5"/><path class="cls-23" d="M154.91,162a92,92,0,0,0-6.16,20c-.12,3.37-.16,6.57-.16,9.2a87.19,87.19,0,0,0,3.5,24.44c16.85.85,43.52.85,43.52.85l14.64-22.4-9.63-.24C182.56,193.85,170.21,168.57,154.91,162Z"/><path class="cls-23" d="M305.94,180.84c-9.93,0-14,13.11-27.27,13.11L283,224.44s34,2.85,36.86,3.59c1.64.43,5.36-.78,8.28-1.91a92.39,92.39,0,0,0,4-27c0-.66,0-1.31,0-2C331.56,196.75,311.59,180.84,305.94,180.84Z"/><path class="cls-24" d="M269.51,272.86l49.17-25.64a91.73,91.73,0,0,0,11.82-30.73h0S311,217,303.24,213.6c-9.55-4.22-31.2-34.09-44.75-52-2.51-3.17-5-6.11-7.28-8.68-4-4.45-15.75-5.78-17.35-5.78-1.39,0-12.62,13.21-20.82,23.12-12.37,15.1-26.93,33.3-34.1,40.47l-12,24.57Z"/><path class="cls-25" d="M320.82,222c-14.21,0-28.32,2.12-45-12-6.51-5.51-12.94-10.81-18.43-4.16-3.43,4.16-9.79,17.89-17.71,12.11s-11.24-23.65-18.79-23.85c-6.14-.16-11.2,8.8-15.72,3.85-3-3.25-30.35,15.84-30.35,15.84s28,24.87,32,24.63,27.43,3.34,27.43,3.34,8.32,9.8,12.59,8.23,14.71,1.71,20.7-.94,34.53-14.48,35.14-15.93S320.82,222,320.82,222Z"/><path class="cls-26" d="M210.65,216.49c-4.59-2.09-3.6-7.55-8.68-9.21s-5.6-2.8-8.4-5.24-6.6.84-9.12-4.16c-1.46-2.89-7.68-4.15-10.3-6.68s-7.3-1.69-9.3-2.53c-4.34-1.81-2.62-4.43-7.77-3.88-3.6.37-5.52-2.51-8.21-3.43a92.21,92.21,0,0,0-1.57,12.54l22.6,12.29s22,7.14,23.67,7.77,26.48,11.37,25.75,10.39C218,222.59,214.3,218.16,210.65,216.49Z"/><path class="cls-27" d="M230.5,236.47a20.32,20.32,0,0,1-7.24-6c-2.74-3.63-2.77-6-6-7.64-3.66-1.83-3.61-2-8-4.16s-4.34-3.61-7-6.68c-2.87-3.37-7.33-3.19-11.67-5.12s-6.17-5.35-8.83-6.63-4.34.12-6.75-1.11c-3.26-1.66-3.45-6.39-7.53-5.9s-5.08,1.92-7.88-.58c-4.67-4.15-6.84-1.53-12-3.13a92.95,92.95,0,0,0,2.3,32.27c4.12.8,8.63,1.66,13.12,2.66,14,3.13,50.81,14.7,63.82,16.86S231.85,237.14,230.5,236.47Z"/><path class="cls-28" d="M147.49,206.86a92.33,92.33,0,0,0,36.28,66h33.39l45.61-27.46C224.84,245.4,203.7,207,147.49,206.86Z"/><path class="cls-29" d="M239.64,291.65a92.51,92.51,0,0,0,90.86-75.16c-34.21,0-76,42.81-114,37.58-21-2.89-26.38-8.68-53.46-3A92.4,92.4,0,0,0,239.64,291.65Z"/><path class="cls-30" d="M227,267.72a.87.87,0,0,1-.87-.87v-9.41a.88.88,0,0,1,1.75,0v9.41A.87.87,0,0,1,227,267.72Z"/><path class="cls-27" d="M232.51,256.64a5.51,5.51,0,1,1-11,0c0-3,2.46-12.39,5.5-12.39S232.51,253.6,232.51,256.64Z"/><path class="cls-26" d="M227,244.25a2.94,2.94,0,0,0-2.15,1.52h0c2.79,0,5,8.56,5,11.34a5.05,5.05,0,0,1-4,4.93,5.6,5.6,0,0,0,1.09.11,5.51,5.51,0,0,0,5.51-5.51C232.51,253.6,230,244.25,227,244.25Z"/><path class="cls-30" d="M298.06,241.75a1.21,1.21,0,0,1-1.21-1.2v-13a1.21,1.21,0,1,1,2.42,0v13A1.21,1.21,0,0,1,298.06,241.75Z"/><path class="cls-27" d="M305.66,226.45a7.6,7.6,0,0,1-15.2,0c0-4.19,3.4-17.1,7.6-17.1S305.66,222.26,305.66,226.45Z"/><path class="cls-26" d="M298.06,209.35c-1.05,0-2.06.82-3,2.1h0c3.84,0,7,11.81,7,15.65a7,7,0,0,1-5.5,6.8,7.51,7.51,0,0,0,1.51.15,7.6,7.6,0,0,0,7.6-7.6C305.66,222.26,302.26,209.35,298.06,209.35Z"/><path class="cls-30" d="M317.63,243.45a1.21,1.21,0,0,1-1.2-1.21v-13a1.21,1.21,0,0,1,2.41,0v13A1.21,1.21,0,0,1,317.63,243.45Z"/><path class="cls-27" d="M325.23,228.15a7.6,7.6,0,0,1-15.2,0c0-4.2,3.41-17.11,7.6-17.11S325.23,224,325.23,228.15Z"/><path class="cls-26" d="M317.63,211.05c-1.05,0-2.05.81-3,2.09h0c3.85,0,7,11.81,7,15.66a7,7,0,0,1-5.5,6.79,7.51,7.51,0,0,0,1.51.16,7.6,7.6,0,0,0,7.6-7.6C325.23,224,321.83,211.05,317.63,211.05Z"/><path class="cls-30" d="M252.73,260a1.21,1.21,0,0,1-1.21-1.21v-13a1.21,1.21,0,0,1,2.42,0v13A1.21,1.21,0,0,1,252.73,260Z"/><path class="cls-27" d="M260.33,244.65a7.6,7.6,0,0,1-15.2,0c0-4.2,3.4-17.1,7.6-17.1S260.33,240.45,260.33,244.65Z"/><path class="cls-26" d="M252.73,227.55c-1.06,0-2.06.81-3,2.1h0c3.84,0,7,11.81,7,15.65a7,7,0,0,1-5.51,6.8,8.42,8.42,0,0,0,1.52.15,7.6,7.6,0,0,0,7.6-7.6C260.33,240.45,256.93,227.55,252.73,227.55Z"/><path class="cls-30" d="M236.83,265.68a1.13,1.13,0,0,1-1.12-1.13V252.46a1.12,1.12,0,1,1,2.24,0v12.09A1.13,1.13,0,0,1,236.83,265.68Z"/><path class="cls-27" d="M243.91,251.43a7.08,7.08,0,1,1-14.16,0c0-3.91,3.17-15.92,7.08-15.92S243.91,247.52,243.91,251.43Z"/><path class="cls-26" d="M236.83,235.51c-1,0-1.92.75-2.77,2h0c3.57,0,6.47,11,6.47,14.57a6.46,6.46,0,0,1-5.12,6.33,6.62,6.62,0,0,0,1.41.15,7.08,7.08,0,0,0,7.08-7.08C243.91,247.52,240.74,235.51,236.83,235.51Z"/><path class="cls-31" d="M322.65,239.94c-51.21-9.72-62,30.12-142.34,30.13a92.43,92.43,0,0,0,142.34-30.13Z"/><path class="cls-4" d="M275.43,166.24a8.19,8.19,0,0,1,8.19-8.19,7.92,7.92,0,0,1,2,.27,11.66,11.66,0,0,1,20.25,7.92Z"/><path class="cls-32" d="M258.49,161.58c-2.51-3.17-5-6.11-7.28-8.68-4-4.45-15.75-5.78-17.35-5.78-1.39,0-12.62,13.21-20.82,23.12-3.15,3.84-6.43,7.88-9.7,11.89,1.41,2,4.15,4.75,8.2,4.36,8-.78,9.52-10.11,15.55-9.34,8.21,1.06,7,24.89,15.55,24.89,8.36,0,2.57-18.07,12.45-21.78,7.28-2.73,10,5.1,22.22,6.12C270.6,177.8,263.9,168.74,258.49,161.58Z"/><path class="cls-33" d="M262,166.18l-3.47-4.6c-2.51-3.17-5-6.11-7.28-8.68-4-4.45-15.75-5.78-17.35-5.78-1,0-6.72,6.42-12.89,13.66,6.75-5.35,10.43-3.15,11.69,3.12,2.9,14.47,6,26.09,9.63,16.94s2-14.4,12.63-13.31C259.1,168,260,166.74,262,166.18Z"/><path class="cls-4" d="M190.66,170.24a8.78,8.78,0,0,1,11-8.59,12.65,12.65,0,0,1,22,8.59Z"/><path class="cls-4" d="M279.92,164.33a5.7,5.7,0,0,0-1.76.3,9.83,9.83,0,0,0-16.17,0,5.7,5.7,0,0,0-1.76-.3,5.91,5.91,0,0,0-5.91,5.91h31.51A5.91,5.91,0,0,0,279.92,164.33Z"/><path class="cls-4" d="M192.84,159.41a4.54,4.54,0,0,0-1.34.23,7.45,7.45,0,0,0-12.27,0,4.54,4.54,0,0,0-1.34-.23,4.48,4.48,0,0,0-4.48,4.49h23.91A4.49,4.49,0,0,0,192.84,159.41Z"/><g class="cls-34"><path class="cls-4" d="M259.5,129.41a4.38,4.38,0,0,0-1.26.21,7,7,0,0,0-11.44,0,4.31,4.31,0,0,0-1.25-.21,4.17,4.17,0,0,0-2.18.63,8.47,8.47,0,0,0-14-2.22,6.25,6.25,0,0,0-1.44-.19,6,6,0,0,0-6,6h41.68A4.18,4.18,0,0,0,259.5,129.41Z"/></g><g class="cls-34"><path class="cls-4" d="M260.56,129.41a4.31,4.31,0,0,0-1.25.21,7,7,0,0,0-11.44,0,4.38,4.38,0,0,0-1.26-.21,4.17,4.17,0,0,0-2.18.63,8.47,8.47,0,0,0-14-2.22,6.16,6.16,0,0,0-1.43-.19,6,6,0,0,0-6,6h41.67A4.18,4.18,0,0,0,260.56,129.41Z"/></g><g class="cls-34"><path class="cls-4" d="M213,141a3.46,3.46,0,0,0-1,.17,5.66,5.66,0,0,0-8.38-1,7.49,7.49,0,0,0-11.7-.82,5.33,5.33,0,0,0-1.27-.17,5.27,5.27,0,0,0-5.28,5.27h31.06A3.41,3.41,0,0,0,213,141Z"/></g><g class="cls-34"><path class="cls-4" d="M309.41,138.44c-1.36-1.55-2.74-3.07-4.2-4.53-.11.08-.24.16-.35.25a7.49,7.49,0,0,0-11.7-.82,5.33,5.33,0,0,0-1.27-.17,5.27,5.27,0,0,0-5.27,5.27h22.79Z"/></g><path class="cls-32" d="M320.82,188.77c-5.73-4-12.07-7.93-14.88-7.93-6.29,0-10.24,5.25-15.65,9.1h0c9-1.52,9.63,10,13.78,10,4.87,0,5-6.2,9.77-4.09C323.11,200,316.13,190.42,320.82,188.77Z"/><path class="cls-33" d="M315.19,185c-3.85-2.4-7.36-4.2-9.25-4.2-4.3,0-7.51,2.46-10.83,5.24,4.73,2.07,8.48,8.08,14.3,4.22C313.26,187.73,314,186.17,315.19,185Z"/><path class="cls-30" d="M287.75,247.18a1.5,1.5,0,0,1-1.5-1.5V229.52a1.5,1.5,0,1,1,3,0v16.16A1.5,1.5,0,0,1,287.75,247.18Z"/><path class="cls-27" d="M297.21,228.14a9.46,9.46,0,1,1-18.92,0c0-5.22,4.24-21.28,9.46-21.28S297.21,222.92,297.21,228.14Z"/><path class="cls-26" d="M287.75,206.86c-1.31,0-2.56,1-3.69,2.62h0c4.78,0,8.65,14.69,8.65,19.47a8.65,8.65,0,0,1-6.84,8.46,9.75,9.75,0,0,0,1.88.19,9.46,9.46,0,0,0,9.46-9.46C297.21,222.92,293,206.86,287.75,206.86Z"/><path class="cls-30" d="M308.4,244.85a1.42,1.42,0,0,1-1.42-1.42V228.16a1.42,1.42,0,1,1,2.83,0v15.27A1.41,1.41,0,0,1,308.4,244.85Z"/><path class="cls-27" d="M317.33,226.86a8.94,8.94,0,1,1-17.87,0c0-4.93,4-20.1,8.94-20.1S317.33,221.93,317.33,226.86Z"/><path class="cls-26" d="M308.4,206.76c-1.24,0-2.42,1-3.5,2.46h0c4.51,0,8.17,13.89,8.17,18.4a8.18,8.18,0,0,1-6.46,8,9.42,9.42,0,0,0,1.78.18,8.93,8.93,0,0,0,8.93-8.94C317.33,221.93,313.33,206.76,308.4,206.76Z"/><path class="cls-30" d="M276.16,248.9a1.25,1.25,0,0,1-1.24-1.24V234.32a1.24,1.24,0,0,1,2.48,0v13.34A1.24,1.24,0,0,1,276.16,248.9Z"/><path class="cls-27" d="M284,233.19a7.8,7.8,0,1,1-15.6,0c0-4.31,3.49-17.56,7.8-17.56S284,228.88,284,233.19Z"/><path class="cls-26" d="M276.16,215.63c-1.08,0-2.11.84-3.05,2.16h0c3.95,0,7.14,12.12,7.14,16.07a7.12,7.12,0,0,1-5.64,7,7.21,7.21,0,0,0,1.55.16,7.8,7.8,0,0,0,7.8-7.8C284,228.88,280.47,215.63,276.16,215.63Z"/><path class="cls-30" d="M265.65,262.91a1.76,1.76,0,0,1-1.76-1.76V242.2a1.76,1.76,0,1,1,3.52,0v18.95A1.76,1.76,0,0,1,265.65,262.91Z"/><path class="cls-27" d="M276.74,240.59a11.09,11.09,0,0,1-22.18,0c0-6.13,5-25,11.09-25S276.74,234.46,276.74,240.59Z"/><path class="cls-26" d="M265.65,215.63c-1.54,0-3,1.19-4.33,3.07h0c5.6,0,10.15,17.23,10.15,22.83a10.15,10.15,0,0,1-8,9.92,10.76,10.76,0,0,0,2.21.22,11.08,11.08,0,0,0,11.09-11.08C276.74,234.46,271.77,215.63,265.65,215.63Z"/><path class="cls-25" d="M239.64,291.65a92.08,92.08,0,0,0,63-24.79c-10,1.67-25.31-15.32-41.19-9.12-7.08,2.76-29.59,21.86-49.21,29.75A92.35,92.35,0,0,0,239.64,291.65Z"/><path class="cls-24" d="M261.43,257.74c-7.08,2.76-29.59,21.86-49.21,29.75.66.2,1.34.35,2,.54,19.84-4.69,43.19-25.65,51-25.88,2.21-.07,16.5,10.71,24.54,14.75a91.76,91.76,0,0,0,12.9-10C292.58,268.53,277.31,251.54,261.43,257.74Z"/></g></g></g></svg>