<?xml version="1.0" encoding="utf-8"?>
<!-- Generator: Adobe Illustrator 23.0.1, SVG Export Plug-In . SVG Version: 6.00 Build 0)  -->
<svg version="1.1" id="Layer_1" xmlns="http://www.w3.org/2000/svg" xmlns:xlink="http://www.w3.org/1999/xlink" x="0px" y="0px"
	 viewBox="0 0 286 178" style="enable-background:new 0 0 286 178;" xml:space="preserve">
<title>Asset 2</title>
<g>
	<g id="Layer_1-2">
		<g id="uO0INm.tif">
			<path d="M87.2,176.8l0.9-3.2l-3.9-0.9c0.2-1.8,0.5-3.5,1-5.2c1.5-4.1,2.3-9.1,5.1-12c4.4-4.6,5.9-9.9,6.7-15.6
				c0.6-4.9,0.7-9.9,1.1-14.9c0.3-4.3,2.1-7.1,6.8-7.7c1.9-0.3,3.6-1.3,4.8-2.8c6.3-9.4,12.4-18.9,18.3-28.5
				c3.1-5.1,1.8-6.8-3.5-9.8c-3.4-1.9-5.9-5.3-9.7-8.9c-5.2,5.8-11.3,12.2-16.8,19.2c-10.1,12.7-20.7,24.8-34,34.3
				c-12.7,9.1-26.7,14-42.5,13.3c-7.9-0.4-14.9-3-19.8-10.8c1.5,0.2,2.5,0.1,3.2,0.5c9.3,5.5,18.8,4.6,28.3,0.7
				c16.9-6.9,31.5-18.5,42-33.5c9-12.7,18.5-25.3,26.1-38.9c9.4-16.8,23.9-26.3,40.9-33c7.3-2.8,14.8-5,22.4-6.5
				c9.8-2,19.2,0.9,28.2,4.4c8.1,3.2,15.9,7.5,23.9,11c4.8,2,9.8,4.3,14.8,4.7c3.7,0.3,8.2-1.6,11.4-3.8
				c6.9-4.7,11.7-11.4,15.5-18.9c1.5-3,4.4-5.2,6.6-7.8l1.7,0.8c0.6,2.3,1.2,4.6,1.8,7l2.4-1.1l1.3,0.7c-1.3,3-2.4,6.2-4.1,9
				c-1.4,2.3-1.2,3.7,1,4.8c9,4.4,10.5,14.5,15.8,21.6c0.5,0.6-2.2,4.7-4.2,5.8c-1.7,0.9-4.8,0.5-6.6-0.5c-4-2.2-8.4-3.5-13-3.8
				c-3.7-0.2-5.9,0.4-8.2,3c-3.9,4.5-7.4,9.7-12.1,13.1c-5.2,3.8-11.6,6.1-17.4,9c-0.7,0.4-1.9,0.6-2.1,1.2
				c-2.4,6.7-5.3,13.2-6.8,20.1s-10,15.8-17.4,16.2c-1.4,0.1-4.2-1.3-4.2-1.8c0.2-2.4,0.8-6.4,2-6.8c9.1-2.5,9.3-9.5,9.2-16.6
				c0-2.7-1.2-5.4-2-8.4h-26c-2.9,9.3-9.5,16.9-18.2,21.2c-18.1,9.1-31.2,23.7-43.9,38.6c-2.4,2.8-2.6,7.6-3.5,11.6
				c-0.7,2.7-1,5.6-0.9,8.4c0.7,10.1-6.3,14.9-13.3,19.3C93.7,176.1,90.5,176,87.2,176.8z"/>
		</g>
	</g>
</g>
</svg>
