<svg xmlns="http://www.w3.org/2000/svg" viewBox="0 0 286 178"><defs><style>.cls-1{fill:#fff;}</style></defs><title>Asset 2</title><g id="Layer_2" data-name="Layer 2"><g id="Layer_1-2" data-name="Layer 1"><g id="uO0INm.tif"><path class="cls-1" d="M0,0H286V178H0ZM87.15,176.81c3.31-.77,6.51-.76,8.8-2.19,7.08-4.45,14-9.21,13.35-19.28a29.79,29.79,0,0,1,.87-8.41c.89-4,1.08-8.8,3.5-11.61,12.78-14.9,25.86-29.53,43.94-38.59a35.26,35.26,0,0,0,18.2-21.15h26c.74,3,1.95,5.66,2,8.38.1,7.11-.09,14.16-9.18,16.62-1.26.35-1.78,4.38-2,6.77,0,.48,2.75,1.85,4.18,1.78,7.33-.36,15.88-9.29,17.43-16.24s4.41-13.45,6.82-20.11c.21-.57,1.35-.82,2.07-1.18,5.86-2.93,12.24-5.16,17.44-9,4.72-3.47,8.22-8.62,12.12-13.14,2.25-2.61,4.51-3.26,8.19-3a30.34,30.34,0,0,1,13,3.83c1.83,1,5,1.38,6.63.46,2-1.11,4.72-5.15,4.24-5.79-5.31-7.19-6.82-17.21-15.82-21.65-2.28-1.12-2.47-2.5-1-4.79,1.71-2.77,2.75-6,4.08-9l-1.26-.71-2.36,1.12c-.61-2.37-1.21-4.68-1.8-7l-1.68-.81c-2.24,2.57-5.1,4.84-6.6,7.79-3.81,7.5-8.64,14.17-15.49,18.9-3.22,2.23-7.67,4.09-11.39,3.81-5-.38-10-2.67-14.79-4.72-8.07-3.45-15.79-7.75-23.94-11-9-3.55-18.41-6.41-28.18-4.41A137.58,137.58,0,0,0,142.11,19c-17,6.66-31.5,16.2-40.91,33C93.58,65.61,84.05,78.14,75,90.87a95.16,95.16,0,0,1-41.95,33.49c-9.42,3.89-18.95,4.8-28.25-.69-.67-.4-1.65-.29-3.18-.52,5,7.82,11.92,10.42,19.83,10.79,15.72.73,29.77-4.25,42.45-13.31,13.28-9.48,23.88-21.6,34-34.29,5.51-6.93,11.67-13.35,16.82-19.18,3.8,3.59,6.32,7,9.68,8.9,5.33,3,6.62,4.69,3.52,9.81-5.84,9.67-12,19.13-18.28,28.53a7.57,7.57,0,0,1-4.78,2.85c-4.72.65-6.53,3.4-6.8,7.74-.32,5-.43,10-1.07,14.92-.74,5.77-2.23,11-6.68,15.64-2.82,2.91-3.58,7.86-5.09,12a33,33,0,0,0-1,5.21l3.87.88Z"/><path d="M87.15,176.81l.87-3.17-3.87-.88a33,33,0,0,1,1-5.21c1.51-4.1,2.27-9.05,5.09-12,4.45-4.6,5.94-9.87,6.68-15.64C97.56,135,97.67,130,98,125c.27-4.34,2.08-7.09,6.8-7.74a7.57,7.57,0,0,0,4.78-2.85c6.27-9.4,12.44-18.86,18.28-28.53,3.1-5.12,1.81-6.79-3.52-9.81-3.36-1.91-5.88-5.31-9.68-8.9C109.5,73,103.34,79.41,97.83,86.34c-10.09,12.69-20.69,24.81-34,34.29-12.68,9.06-26.73,14-42.45,13.31-7.91-.37-14.87-3-19.83-10.79,1.53.23,2.51.12,3.18.52,9.3,5.49,18.83,4.58,28.25.69a95.16,95.16,0,0,0,42-33.49C84,78.14,93.51,65.61,101.13,52,110.54,35.24,125,25.7,142,19a137.58,137.58,0,0,1,22.41-6.54c9.77-2,19.2.86,28.18,4.41,8.15,3.23,15.87,7.53,23.94,11,4.76,2.05,9.76,4.34,14.79,4.72,3.72.28,8.17-1.58,11.39-3.81,6.85-4.73,11.68-11.4,15.49-18.9,1.5-3,4.36-5.22,6.6-7.79l1.68.81c.59,2.31,1.19,4.62,1.8,7l2.36-1.12,1.26.71c-1.33,3-2.37,6.21-4.08,9-1.43,2.29-1.24,3.67,1,4.79,9,4.44,10.51,14.46,15.82,21.65.48.64-2.25,4.68-4.24,5.79-1.66.92-4.8.54-6.63-.46a30.34,30.34,0,0,0-13-3.83c-3.68-.24-5.94.41-8.19,3-3.9,4.52-7.4,9.67-12.12,13.14-5.2,3.82-11.58,6.05-17.44,9-.72.36-1.86.61-2.07,1.18-2.41,6.66-5.29,13.24-6.82,20.11s-10,15.84-17.36,16.24c-1.43.07-4.23-1.3-4.18-1.78.24-2.39.76-6.42,2-6.77,9.09-2.46,9.28-9.51,9.18-16.62,0-2.72-1.25-5.42-2-8.38h-26a35.26,35.26,0,0,1-18.2,21.15c-18.08,9.06-31.16,23.69-43.94,38.59-2.42,2.81-2.61,7.64-3.5,11.61a29.79,29.79,0,0,0-.87,8.41C110,165.41,103,170.17,96,174.62,93.66,176.05,90.46,176,87.15,176.81Z"/></g></g></g></svg>