<?xml version="1.0" encoding="utf-8"?>
<!-- Generator: Adobe Illustrator 23.0.1, SVG Export Plug-In . SVG Version: 6.00 Build 0)  -->
<svg version="1.1" id="Capa_1" xmlns="http://www.w3.org/2000/svg" xmlns:xlink="http://www.w3.org/1999/xlink" x="0px" y="0px"
	 viewBox="0 0 52 52" style="enable-background:new 0 0 52 52;" xml:space="preserve">
<style type="text/css">
	.st0{fill:#2F54EB;}
	.st1{fill:#FF0000;}
</style>
<g>
	<path class="st0" d="M37,5.3L37,5.3c-7.1-7.1-18.6-7.1-25.7,0l0,0C4.9,11.7,4.2,23.8,9.6,31l14.5,21l14.5-21
		C44.1,23.8,43.4,11.7,37,5.3z M24.4,24c-3.3,0-6-2.7-6-6s2.7-6,6-6s6,2.7,6,6S27.7,24,24.4,24z"/>
	<g>
		<path class="st1" d="M34,35.2c1-2.2,3.1-4.2,5.7-4.2c3.5,0,6,2.8,6.3,6.2c0,0,0.2,0.8-0.2,2.3c-0.5,2-1.7,3.9-3.3,5.3L34,52
			l-8.4-7.2c-1.6-1.4-2.8-3.2-3.3-5.3C21.9,38,22,37.2,22,37.2c0.3-3.4,2.8-6.2,6.3-6.2C30.9,31,33,33,34,35.2z"/>
	</g>
</g>
</svg>
